<svg width="307" height="51" viewBox="0 0 307 51" fill="none" xmlns="http://www.w3.org/2000/svg">
<path d="M75.3758 34.3614V25.8238C75.3758 21.4057 71.8072 17.8322 67.3454 17.8322H66.9981C65.2633 17.8322 63.5281 18.4277 62.6856 19.4702V9.34392C62.6856 8.10226 61.7436 7.45776 60.8016 7.45776C59.8596 7.45776 58.918 8.10267 58.918 9.34392V40.566C58.918 41.7575 59.86 42.353 60.8016 42.353C61.6445 42.353 62.4871 41.8563 62.6359 40.8648C63.3296 41.5591 64.7673 42.353 66.8987 42.353H67.345C71.757 42.353 75.3758 38.7795 75.3758 34.3614ZM71.6087 34.3614C71.6087 36.6945 69.7251 38.5811 67.3454 38.5811H66.8991C64.6686 38.5811 62.686 37.0917 62.686 34.6594V25.4266C62.686 23.1429 64.669 21.6045 66.8991 21.6045H67.3454C69.7251 21.6045 71.6087 23.4911 71.6087 25.8238V34.3614ZM91.1892 40.4664C91.1892 39.5236 90.5941 38.5811 89.3056 38.5811C87.7685 38.5309 86.5791 37.3399 86.5791 35.8006V9.34392C86.5791 8.10226 85.6375 7.45776 84.6951 7.45776C83.7535 7.45776 82.8115 8.10267 82.8115 9.34392V35.8006C82.8115 39.424 85.6868 42.353 89.3056 42.353C90.5941 42.353 91.1892 41.4097 91.1892 40.4664ZM112.801 34.3614V25.8238C112.801 21.4057 109.233 17.8322 104.821 17.8322H104.325C99.913 17.8322 96.3439 21.4057 96.3439 25.8238V34.3614C96.3439 38.7795 99.913 42.353 104.325 42.353H104.821C109.232 42.353 112.801 38.7795 112.801 34.3614ZM109.034 34.3614C109.034 36.6945 107.151 38.5811 104.821 38.5811H104.374C101.995 38.5811 100.111 36.6945 100.111 34.3614V25.8238C100.111 23.4911 101.995 21.6045 104.325 21.6045H104.821C107.151 21.6045 109.034 23.4911 109.034 25.8238V34.3614V34.3614ZM135.653 34.3614C135.653 33.0712 134.711 32.4259 133.769 32.4259C132.878 32.4259 131.935 33.0712 131.886 34.3614C131.787 36.6945 130.002 38.5811 127.672 38.5811H127.226C124.847 38.5811 122.963 36.6945 122.963 34.3614V25.8238C122.963 23.4911 124.847 21.6045 127.177 21.6045H127.672C130.002 21.6045 131.786 23.3417 131.885 25.8731C131.935 27.1148 132.877 27.7103 133.769 27.7103C134.711 27.7103 135.653 27.0646 135.653 25.8238C135.653 21.4057 132.034 17.8322 127.671 17.8322H127.176C122.814 17.8322 119.195 21.3563 119.195 25.8238V34.3614C119.195 38.7795 122.764 42.353 127.176 42.353H127.671C132.084 42.353 135.653 38.7795 135.653 34.3614ZM159.397 40.4664C159.397 40.1689 159.348 39.8219 159.149 39.5236L152.358 27.6103L158.505 21.0584C158.902 20.6612 159.05 20.2147 159.05 19.7677C159.05 18.7743 158.207 17.8318 157.117 17.8318C156.671 17.8318 156.175 18.0298 155.778 18.4771L146.36 28.5038V9.34392C146.36 8.10226 145.418 7.45776 144.476 7.45776C143.534 7.45776 142.592 8.10267 142.592 9.34392V40.4664C142.592 41.7077 143.534 42.353 144.476 42.353C145.418 42.353 146.36 41.7077 146.36 40.4664V34.0627L149.681 30.4891L155.877 41.3595C156.274 42.0554 156.868 42.353 157.464 42.353C158.604 42.353 159.397 41.4591 159.397 40.4664ZM180.81 34.3614C180.81 33.0712 179.868 32.4259 178.927 32.4259C178.035 32.4259 177.092 33.0712 177.043 34.3614C176.944 36.6945 175.159 38.5811 172.83 38.5811H172.383C170.004 38.5811 168.12 36.6945 168.12 34.3614V25.8238C168.12 23.4911 170.004 21.6045 172.334 21.6045H172.83C175.159 21.6045 176.944 23.3417 177.043 25.8731C177.092 27.1148 178.035 27.7103 178.927 27.7103C179.869 27.7103 180.81 27.0646 180.81 25.8238C180.81 21.4057 177.192 17.8322 172.83 17.8322H172.334C167.972 17.8322 164.353 21.3563 164.353 25.8238V34.3614C164.353 38.7795 167.923 42.353 172.334 42.353H172.83C177.242 42.353 180.81 38.7795 180.81 34.3614ZM204.208 40.4664V25.8238C204.208 21.4057 200.639 17.8322 196.226 17.8322H195.83C194.095 17.8322 192.36 18.4277 191.516 19.3212V9.34392C191.516 8.10226 190.575 7.45776 189.634 7.45776C188.692 7.45776 187.751 8.10267 187.751 9.34392V40.4664C187.751 41.7077 188.693 42.353 189.634 42.353C190.576 42.353 191.516 41.7077 191.516 40.4664V25.5756C191.516 22.9939 193.749 21.6045 196.029 21.6045C198.209 21.6045 200.44 22.9449 200.44 25.8238V40.4664C200.44 41.7077 201.382 42.353 202.324 42.353C203.266 42.353 204.208 41.7077 204.208 40.4664ZM228.993 40.4183C228.993 39.6232 228.497 38.8289 227.406 38.6305C226.515 38.4819 226.118 37.8852 226.118 36.9921V25.4756C226.118 21.207 222.747 17.8318 218.335 17.8318H217.988C215.361 17.8318 212.188 18.8743 210.602 22.4482C210.453 22.7458 210.403 23.0433 210.403 23.3417C210.403 24.3841 211.346 25.0788 212.287 25.0788C212.932 25.0788 213.576 24.7813 213.973 24.0858C214.915 22.4478 215.956 21.6041 217.988 21.6041H218.335C220.517 21.6041 222.35 22.6964 222.35 25.6242C222.35 25.8727 222.35 26.2699 222.202 26.4683C221.013 28.1564 210.008 26.7658 209.661 34.6088V35.2043C209.661 39.8215 213.626 42.3526 217.642 42.3526H218.088C220.12 42.3526 222.004 41.6081 223.442 40.3681C224.086 41.3109 225.127 42.0554 226.812 42.3032C226.912 42.3526 227.06 42.3526 227.16 42.3526C228.348 42.353 228.993 41.4097 228.993 40.4183ZM222.35 34.3614C222.35 36.6945 220.417 38.5811 218.088 38.5811H217.641C215.113 38.5811 213.428 37.2407 213.428 35.1059V34.7084C213.576 31.2336 218.682 31.4328 222.35 30.4402V34.3614ZM238.708 40.4664V19.7184C238.708 18.4771 237.766 17.8322 236.825 17.8322C235.884 17.8322 234.941 18.4775 234.941 19.7184V40.4664C234.941 41.7077 235.884 42.353 236.825 42.353C237.766 42.353 238.708 41.7077 238.708 40.4664ZM263.096 40.4664V25.8238C263.096 20.3633 259.378 17.8322 255.165 17.8322H254.719C252.983 17.8322 251.348 18.4277 250.456 19.3212C250.259 18.3277 249.414 17.8322 248.572 17.8322C247.58 17.8322 246.639 18.5269 246.639 19.7184V40.4664C246.639 41.7077 247.581 42.353 248.523 42.353C249.465 42.353 250.406 41.7077 250.406 40.4664V25.8238C250.406 23.4911 252.34 21.6045 254.669 21.6045H255.116C257.495 21.6045 259.378 23.4911 259.378 25.8238V40.4664C259.378 41.7077 260.321 42.353 261.262 42.353C262.204 42.353 263.096 41.7077 263.096 40.4664ZM282.549 40.4664V19.7184C282.549 18.4771 281.607 17.8322 280.665 17.8322C279.724 17.8322 278.782 18.4775 278.782 19.7184V40.4664C278.782 41.7077 279.724 42.353 280.665 42.353C281.607 42.353 282.549 41.7077 282.549 40.4664ZM306.391 34.3614V25.8238C306.391 21.4057 302.822 17.8322 298.411 17.8322H297.915C293.503 17.8322 289.935 21.4057 289.935 25.8238V34.3614C289.935 38.7795 293.503 42.353 297.915 42.353H298.411C302.823 42.353 306.391 38.7795 306.391 34.3614ZM302.625 34.3614C302.625 36.6945 300.741 38.5811 298.411 38.5811H297.965C295.584 38.5811 293.702 36.6945 293.702 34.3614V25.8238C293.702 23.4911 295.584 21.6045 297.915 21.6045H298.411C300.741 21.6045 302.625 23.4911 302.625 25.8238V34.3614Z" fill="white" fill-opacity="0.5"/>
<path d="M21.5906 23.6938C20.4428 23.6938 19.5093 24.629 19.5093 25.778C19.5093 26.927 20.4432 27.8617 21.5906 27.8617C22.738 27.8617 23.6723 26.927 23.6723 25.778C23.6723 24.629 22.7385 23.6938 21.5906 23.6938Z" fill="white" fill-opacity="0.5"/>
<path d="M31.2141 17.9116C30.0662 17.9116 29.1336 18.8467 29.1336 19.9957C29.1336 21.1451 30.0666 22.0794 31.2141 22.0794C32.3615 22.0794 33.2961 21.1447 33.2961 19.9957C33.2965 18.8467 32.3619 17.9116 31.2141 17.9116Z" fill="white" fill-opacity="0.5"/>
<path d="M40.8378 12.1296C39.6904 12.1296 38.7566 13.0643 38.7566 14.2133C38.7566 15.3628 39.6904 16.2987 40.8378 16.2987C41.9861 16.2987 42.9191 15.3632 42.9191 14.2133C42.9191 13.0643 41.9861 12.1296 40.8378 12.1296Z" fill="white" fill-opacity="0.5"/>
<path d="M11.9666 6.34717C10.8192 6.34717 9.88532 7.28228 9.88532 8.43169C9.88532 9.58069 10.8192 10.5154 11.9666 10.5154C13.1144 10.5154 14.0483 9.58069 14.0483 8.43169C14.0483 7.28228 13.1148 6.34717 11.9666 6.34717Z" fill="white" fill-opacity="0.5"/>
<path d="M21.5908 0.564941C20.443 0.564941 19.5096 1.50047 19.5096 2.64946C19.5096 3.79887 20.4434 4.73399 21.5908 4.73399C22.7383 4.73399 23.6725 3.79887 23.6725 2.64946C23.6725 1.50047 22.7387 0.564941 21.5908 0.564941Z" fill="white" fill-opacity="0.5"/>
<path d="M21.5906 12.1296C20.4428 12.1296 19.5093 13.0643 19.5093 14.2133C19.5093 15.3628 20.4432 16.2987 21.5906 16.2987C22.738 16.2987 23.6723 15.3632 23.6723 14.2133C23.6723 13.0643 22.7385 12.1296 21.5906 12.1296Z" fill="white" fill-opacity="0.5"/>
<path d="M31.2141 6.34717C30.0662 6.34717 29.1336 7.28228 29.1336 8.43169C29.1336 9.58069 30.0666 10.5154 31.2141 10.5154C32.3615 10.5154 33.2961 9.58069 33.2961 8.43169C33.2965 7.28228 32.3619 6.34717 31.2141 6.34717Z" fill="white" fill-opacity="0.5"/>
<path d="M31.2141 29.4763C30.0662 29.4763 29.1336 30.411 29.1336 31.5596C29.1336 32.709 30.0666 33.6437 31.2141 33.6437C32.3615 33.6437 33.2961 32.709 33.2961 31.5596C33.2965 30.411 32.3619 29.4763 31.2141 29.4763Z" fill="white" fill-opacity="0.5"/>
<path d="M40.8378 23.6938C39.6904 23.6938 38.7566 24.629 38.7566 25.778C38.7566 26.927 39.6904 27.8617 40.8378 27.8617C41.9861 27.8617 42.9191 26.927 42.9191 25.778C42.9191 24.629 41.9861 23.6938 40.8378 23.6938Z" fill="white" fill-opacity="0.5"/>
<path d="M31.2141 41.04C30.0662 41.04 29.1336 41.9747 29.1336 43.1242C29.1336 44.2732 30.0666 45.2079 31.2141 45.2079C32.3615 45.2079 33.2961 44.2732 33.2961 43.1242C33.2965 41.9747 32.3619 41.04 31.2141 41.04Z" fill="white" fill-opacity="0.5"/>
<path d="M40.8378 35.2578C39.6904 35.2578 38.7566 36.1925 38.7566 37.3419C38.7566 38.4909 39.6904 39.4256 40.8378 39.4256C41.9861 39.4256 42.9191 38.4909 42.9191 37.3419C42.9191 36.1925 41.9861 35.2578 40.8378 35.2578Z" fill="white" fill-opacity="0.5"/>
<path d="M21.5906 46.8223C20.4428 46.8223 19.5093 47.7574 19.5093 48.9064C19.5093 50.055 20.4432 50.9901 21.5906 50.9901C22.738 50.9901 23.6723 50.055 23.6723 48.9064C23.6723 47.7574 22.7385 46.8223 21.5906 46.8223Z" fill="white" fill-opacity="0.5"/>
<path d="M21.5906 35.2578C20.4428 35.2578 19.5093 36.1925 19.5093 37.3419C19.5093 38.4909 20.4432 39.4256 21.5906 39.4256C22.738 39.4256 23.6723 38.4909 23.6723 37.3419C23.6723 36.1925 22.7385 35.2578 21.5906 35.2578Z" fill="white" fill-opacity="0.5"/>
<path d="M11.9666 17.9116C10.8192 17.9116 9.88532 18.8467 9.88532 19.9957C9.88532 21.1451 10.8192 22.0794 11.9666 22.0794C13.1144 22.0794 14.0483 21.1447 14.0483 19.9957C14.0483 18.8467 13.1148 17.9116 11.9666 17.9116Z" fill="white" fill-opacity="0.5"/>
<path d="M11.9666 41.04C10.8192 41.04 9.88532 41.9747 9.88532 43.1242C9.88532 44.2732 10.8192 45.2079 11.9666 45.2079C13.1144 45.2079 14.0483 44.2732 14.0483 43.1242C14.0483 41.9747 13.1148 41.04 11.9666 41.04Z" fill="white" fill-opacity="0.5"/>
<path d="M11.9666 29.4763C10.8192 29.4763 9.88532 30.411 9.88532 31.5596C9.88532 32.709 10.8192 33.6437 11.9666 33.6437C13.1144 33.6437 14.0483 32.709 14.0483 31.5596C14.0483 30.411 13.1148 29.4763 11.9666 29.4763Z" fill="white" fill-opacity="0.5"/>
<path d="M2.3432 12.1296C1.19536 12.1296 0.262333 13.0643 0.262333 14.2133C0.262333 15.3628 1.19577 16.2987 2.3432 16.2987C3.49064 16.2987 4.42489 15.3632 4.42489 14.2133C4.42489 13.0643 3.49064 12.1296 2.3432 12.1296Z" fill="white" fill-opacity="0.5"/>
<path d="M2.3432 35.2578C1.19536 35.2578 0.262333 36.1925 0.262333 37.3419C0.262333 38.4909 1.19577 39.4256 2.3432 39.4256C3.49064 39.4256 4.42489 38.4909 4.42489 37.3419C4.42489 36.1925 3.49064 35.2578 2.3432 35.2578Z" fill="white" fill-opacity="0.5"/>
<path d="M2.3432 23.6938C1.19536 23.6938 0.262333 24.629 0.262333 25.778C0.262333 26.927 1.19577 27.8617 2.3432 27.8617C3.49064 27.8617 4.42489 26.927 4.42489 25.778C4.42489 24.629 3.49064 23.6938 2.3432 23.6938Z" fill="white" fill-opacity="0.5"/>
<path d="M236.794 7.354C235.75 7.354 234.899 8.20422 234.899 9.24995C234.899 10.2957 235.75 11.1463 236.794 11.1463C237.838 11.1463 238.688 10.2957 238.688 9.24995C238.688 8.20422 237.838 7.354 236.794 7.354Z" fill="white" fill-opacity="0.5"/>
<path d="M280.649 7.354C279.605 7.354 278.755 8.20422 278.755 9.24995C278.755 10.2957 279.605 11.1463 280.649 11.1463C281.694 11.1463 282.543 10.2957 282.543 9.24995C282.543 8.20422 281.694 7.354 280.649 7.354Z" fill="white" fill-opacity="0.5"/>
<path d="M270.714 38.7166C269.676 38.7166 268.83 39.5623 268.83 40.6023C268.83 41.6423 269.676 42.4889 270.714 42.4889C271.753 42.4889 272.598 41.6423 272.598 40.6023C272.598 39.5623 271.753 38.7166 270.714 38.7166Z" fill="white" fill-opacity="0.5"/>
</svg>
