<svg width="222" height="242" viewBox="0 0 222 242" fill="none" xmlns="http://www.w3.org/2000/svg">
<path d="M107.755 126.623C107.251 126.623 106.786 126.497 106.362 126.245C105.951 125.993 105.619 125.661 105.367 125.25C105.115 124.826 104.989 124.361 104.989 123.857V115.062C104.989 114.558 105.115 114.1 105.367 113.689C105.619 113.265 105.951 112.926 106.362 112.674C106.786 112.422 107.251 112.296 107.755 112.296H116.55C117.054 112.296 117.511 112.422 117.923 112.674C118.347 112.926 118.685 113.265 118.937 113.689C119.19 114.1 119.316 114.558 119.316 115.062V123.857C119.316 124.361 119.19 124.826 118.937 125.25C118.685 125.661 118.347 125.993 117.923 126.245C117.511 126.497 117.054 126.623 116.55 126.623H107.755ZM107.854 123.977H116.41C116.477 123.977 116.536 123.957 116.59 123.917C116.643 123.864 116.669 123.804 116.669 123.738V115.182C116.669 115.115 116.643 115.062 116.59 115.022C116.536 114.969 116.477 114.943 116.41 114.943H107.854C107.788 114.943 107.728 114.969 107.675 115.022C107.635 115.062 107.615 115.115 107.615 115.182V123.738C107.615 123.804 107.635 123.864 107.675 123.917C107.728 123.957 107.788 123.977 107.854 123.977ZM123.881 126.623C123.377 126.623 122.92 126.497 122.508 126.245C122.097 125.993 121.765 125.661 121.513 125.25C121.261 124.839 121.135 124.381 121.135 123.877V117.828C121.135 117.324 121.261 116.866 121.513 116.455C121.765 116.044 122.097 115.712 122.508 115.46C122.92 115.208 123.377 115.082 123.881 115.082H132.836V117.689H123.981C123.914 117.689 123.855 117.715 123.802 117.768C123.762 117.808 123.742 117.861 123.742 117.928V123.778C123.742 123.844 123.762 123.904 123.802 123.957C123.855 123.996 123.914 124.016 123.981 124.016H132.855V126.623H123.881ZM137.212 126.623C136.707 126.623 136.25 126.497 135.839 126.245C135.427 125.993 135.096 125.661 134.844 125.25C134.592 124.839 134.466 124.381 134.466 123.877V117.828C134.466 117.324 134.592 116.866 134.844 116.455C135.096 116.044 135.427 115.712 135.839 115.46C136.25 115.208 136.707 115.082 137.212 115.082H143.44C143.944 115.082 144.401 115.208 144.813 115.46C145.237 115.712 145.569 116.044 145.808 116.455C146.06 116.866 146.186 117.324 146.186 117.828V122.166H137.072V123.778C137.072 123.844 137.092 123.904 137.132 123.957C137.185 123.996 137.245 124.016 137.311 124.016H146.186V126.623H137.212ZM137.072 119.818H143.579V117.928C143.579 117.861 143.552 117.808 143.499 117.768C143.46 117.715 143.407 117.689 143.34 117.689H137.311C137.245 117.689 137.185 117.715 137.132 117.768C137.092 117.808 137.072 117.861 137.072 117.928V119.818ZM151.009 126.623C150.505 126.623 150.04 126.497 149.616 126.245C149.205 125.993 148.873 125.661 148.621 125.25C148.382 124.839 148.263 124.381 148.263 123.877V119.539H157.376V117.928C157.376 117.861 157.35 117.808 157.297 117.768C157.257 117.715 157.204 117.689 157.137 117.689H148.263V115.082H157.237C157.741 115.082 158.199 115.208 158.61 115.46C159.034 115.712 159.366 116.044 159.605 116.455C159.857 116.866 159.983 117.324 159.983 117.828V126.623H151.009ZM151.108 124.016H157.376V121.887H150.869V123.778C150.869 123.844 150.889 123.904 150.929 123.957C150.982 123.996 151.042 124.016 151.108 124.016ZM161.905 126.623V115.082H170.879C171.383 115.082 171.841 115.208 172.252 115.46C172.676 115.712 173.008 116.044 173.247 116.455C173.499 116.866 173.625 117.324 173.625 117.828V126.623H171.018V117.928C171.018 117.861 170.992 117.808 170.939 117.768C170.899 117.715 170.846 117.689 170.779 117.689H164.75C164.684 117.689 164.624 117.715 164.571 117.768C164.531 117.808 164.512 117.861 164.512 117.928V126.623H161.905ZM175.8 126.623V112.296H178.685L187.48 122.763V112.296H190.126V126.623H187.241L178.426 116.137V126.623H175.8ZM192.395 126.623V112.296H205.588V114.943H195.042V118.126H203.518V120.793H195.042V126.623H192.395ZM212.063 126.623V114.943H206.213V112.296H220.54V114.943H214.71V126.623H212.063Z" fill="white"/>
<g filter="url(#filter0_bd_6515_161)">
<path d="M91.1392 123.38L82.9094 118.523L91.1342 130.117L99.3682 118.523L91.1342 123.38H91.1392ZM91.2615 103.307L83.0351 116.96L91.2615 121.826L99.4913 116.965L91.2615 103.307Z" fill="url(#paint0_linear_6515_161)"/>
</g>
<defs>
<filter id="filter0_bd_6515_161" x="-129.339" y="-108.942" width="441.078" height="451.307" filterUnits="userSpaceOnUse" color-interpolation-filters="sRGB">
<feFlood flood-opacity="0" result="BackgroundImageFix"/>
<feGaussianBlur in="BackgroundImageFix" stdDeviation="106.124"/>
<feComposite in2="SourceAlpha" operator="in" result="effect1_backgroundBlur_6515_161"/>
<feColorMatrix in="SourceAlpha" type="matrix" values="0 0 0 0 0 0 0 0 0 0 0 0 0 0 0 0 0 0 127 0" result="hardAlpha"/>
<feOffset dy="4.42184"/>
<feGaussianBlur stdDeviation="53.6148"/>
<feComposite in2="hardAlpha" operator="out"/>
<feColorMatrix type="matrix" values="0 0 0 0 1 0 0 0 0 0.337255 0 0 0 0 0.964706 0 0 0 0.51 0"/>
<feBlend mode="normal" in2="effect1_backgroundBlur_6515_161" result="effect2_dropShadow_6515_161"/>
<feBlend mode="normal" in="SourceGraphic" in2="effect2_dropShadow_6515_161" result="shape"/>
</filter>
<linearGradient id="paint0_linear_6515_161" x1="82.9094" y1="103.307" x2="103.061" y2="103.792" gradientUnits="userSpaceOnUse">
<stop offset="0.183111" stop-color="#FF56F6"/>
<stop offset="0.432593" stop-color="#B936EE"/>
<stop offset="0.854443" stop-color="#3BACE2"/>
<stop offset="1" stop-color="#406AFF"/>
</linearGradient>
</defs>
</svg>
