<svg width="22" height="21" viewBox="0 0 22 21" fill="none" xmlns="http://www.w3.org/2000/svg">
<path d="M21.7144 2.35237C21.7144 1.98023 21.5714 1.62333 21.3169 1.36019C21.0623 1.09705 20.7171 0.949219 20.3572 0.949219H1.35721C0.997276 0.949219 0.652081 1.09705 0.397568 1.36019C0.143053 1.62333 7.05719e-05 1.98023 7.05719e-05 2.35237C7.05719e-05 2.7245 0.143053 3.0814 0.397568 3.34454C0.652081 3.60768 0.997276 3.75551 1.35721 3.75551H20.3572C20.7171 3.75551 21.0623 3.60768 21.3169 3.34454C21.5714 3.0814 21.7144 2.7245 21.7144 2.35237Z" fill="white"/>
<path d="M21.7144 19.1905C21.7144 18.8184 21.5714 18.4615 21.3169 18.1983C21.0623 17.9352 20.7171 17.7874 20.3572 17.7874H1.35721C0.997276 17.7874 0.652081 17.9352 0.397568 18.1983C0.143053 18.4615 7.05719e-05 18.8184 7.05719e-05 19.1905C7.05719e-05 19.5626 0.143053 19.9195 0.397568 20.1827C0.652081 20.4458 0.997276 20.5936 1.35721 20.5936H20.3572C20.7171 20.5936 21.0623 20.4458 21.3169 20.1827C21.5714 19.9195 21.7144 19.5626 21.7144 19.1905Z" fill="white"/>
<path d="M20.3572 9.36768C20.7171 9.36768 21.0623 9.51551 21.3169 9.77865C21.5714 10.0418 21.7144 10.3987 21.7144 10.7708C21.7144 11.143 21.5714 11.4999 21.3169 11.763C21.0623 12.0261 20.7171 12.174 20.3572 12.174H9.50007C9.14013 12.174 8.79494 12.0261 8.54043 11.763C8.28591 11.4999 8.14293 11.143 8.14293 10.7708C8.14293 10.3987 8.28591 10.0418 8.54043 9.77865C8.79494 9.51551 9.14013 9.36768 9.50007 9.36768H20.3572Z" fill="white"/>
</svg>
