<svg width="45" height="13" viewBox="0 0 45 13" fill="none" xmlns="http://www.w3.org/2000/svg">
<path d="M0.023486 12.0486V5.52637C0.023486 4.52409 0.244578 3.64709 0.686762 2.89538C1.14368 2.14367 1.77011 1.56146 2.56604 1.14876C3.36197 0.721311 4.26845 0.507589 5.28547 0.507589C6.31723 0.507589 7.22371 0.721311 8.0049 1.14876C8.80083 1.56146 9.41989 2.14367 9.86207 2.89538C10.319 3.64709 10.5475 4.52409 10.5475 5.52637V12.0486H8.51341V5.54848C8.51341 4.87047 8.35865 4.28826 8.04912 3.80186C7.75433 3.30072 7.35637 2.91749 6.85522 2.65218C6.36882 2.38687 5.84557 2.25421 5.28547 2.25421C4.72537 2.25421 4.19475 2.38687 3.69361 2.65218C3.20721 2.91749 2.80924 3.30072 2.49971 3.80186C2.20493 4.28826 2.05753 4.87047 2.05753 5.54848V12.0486H0.023486ZM19.5032 12.0486C18.2651 12.0486 17.167 11.8201 16.209 11.3632C15.2509 10.8915 14.4992 10.2356 13.9538 9.39548C13.4232 8.54059 13.1579 7.54568 13.1579 6.41074C13.1579 5.29054 13.3864 4.28826 13.8433 3.40389C14.3002 2.50479 14.934 1.79729 15.7447 1.28141C16.5553 0.76553 17.4987 0.507589 18.5746 0.507589C19.7391 0.507589 20.7045 0.75816 21.471 1.2593C22.2521 1.76044 22.8343 2.43846 23.2176 3.29335C23.6008 4.1335 23.7924 5.07682 23.7924 6.12332C23.7924 6.28546 23.785 6.45496 23.7703 6.63183C23.7703 6.80871 23.7556 6.96347 23.7261 7.09613H15.3246C15.3983 7.78888 15.6268 8.37846 16.01 8.86486C16.3932 9.33652 16.8796 9.69764 17.4692 9.94821C18.0735 10.184 18.7368 10.302 19.459 10.302H22.3995V12.0486H19.5032ZM15.3025 5.65903H21.7363C21.7363 5.37898 21.7068 5.08419 21.6478 4.77466C21.5889 4.45039 21.4857 4.14087 21.3383 3.84608C21.1909 3.53655 20.9919 3.26387 20.7413 3.02804C20.5055 2.77747 20.2034 2.57848 19.8349 2.43109C19.4811 2.28369 19.061 2.21 18.5746 2.21C18.0588 2.21 17.6018 2.31317 17.2039 2.51953C16.8207 2.71114 16.489 2.97645 16.209 3.31546C15.9289 3.63972 15.7152 4.00821 15.5678 4.42091C15.4204 4.83362 15.332 5.24632 15.3025 5.65903ZM30.1668 12.3139C29.4593 12.3139 28.8181 12.1812 28.2433 11.9159C27.6832 11.6359 27.2336 11.2084 26.8946 10.6336C26.5556 10.044 26.3861 9.29231 26.3861 8.37846V0.772899H28.4201V8.73221C28.4201 9.13017 28.5012 9.46918 28.6633 9.74923C28.8255 10.0293 29.0392 10.2356 29.3045 10.3683C29.5698 10.5009 29.8499 10.5673 30.1447 10.5673C30.4394 10.5673 30.7195 10.5009 30.9848 10.3683C31.2501 10.2209 31.4638 10.0145 31.626 9.74923C31.8028 9.46918 31.8913 9.13017 31.8913 8.73221V4.35459C31.8913 3.48496 32.0534 2.7701 32.3777 2.21C32.702 1.63516 33.1441 1.20771 33.7042 0.927664C34.2643 0.647614 34.8981 0.507589 35.6056 0.507589C36.3131 0.507589 36.9469 0.647614 37.507 0.927664C38.0671 1.20771 38.5093 1.63516 38.8336 2.21C39.1578 2.7701 39.32 3.48496 39.32 4.35459V8.73221C39.32 9.13017 39.401 9.46918 39.5632 9.74923C39.7253 10.0145 39.939 10.2209 40.2043 10.3683C40.4696 10.5009 40.7571 10.5673 41.0666 10.5673C41.3761 10.5673 41.6562 10.5009 41.9067 10.3683C42.1573 10.2209 42.3637 10.0145 42.5258 9.74923C42.6879 9.46918 42.769 9.13017 42.769 8.73221V0.772899H44.8252V8.37846C44.8252 9.29231 44.6557 10.044 44.3166 10.6336C43.9776 11.2084 43.5207 11.6359 42.9459 11.9159C42.3858 12.1812 41.7594 12.3139 41.0666 12.3139C40.3886 12.3139 39.7622 12.1812 39.1873 11.9159C38.6125 11.6359 38.1482 11.2084 37.7944 10.6336C37.4554 10.044 37.2859 9.29231 37.2859 8.37846V4.04506C37.2859 3.63235 37.2049 3.29335 37.0427 3.02804C36.8806 2.76273 36.6742 2.57111 36.4237 2.4532C36.1731 2.32054 35.9004 2.25421 35.6056 2.25421C35.3108 2.25421 35.0308 2.32054 34.7655 2.4532C34.5149 2.57111 34.3086 2.76273 34.1464 3.02804C33.999 3.29335 33.9253 3.63235 33.9253 4.04506V8.37846C33.9253 9.29231 33.7485 10.044 33.3947 10.6336C33.0557 11.2084 32.5988 11.6359 32.0239 11.9159C31.4638 12.1812 30.8448 12.3139 30.1668 12.3139Z" fill="#2EC5CE"/>
</svg>
